%TF.GenerationSoftware,KiCad,Pcbnew,8.0.6*%
%TF.CreationDate,2024-11-04T14:24:17-05:00*%
%TF.ProjectId,Voltage regulator 5 and 9V,566f6c74-6167-4652-9072-6567756c6174,rev?*%
%TF.SameCoordinates,Original*%
%TF.FileFunction,Legend,Bot*%
%TF.FilePolarity,Positive*%
%FSLAX46Y46*%
G04 Gerber Fmt 4.6, Leading zero omitted, Abs format (unit mm)*
G04 Created by KiCad (PCBNEW 8.0.6) date 2024-11-04 14:24:17*
%MOMM*%
%LPD*%
G01*
G04 APERTURE LIST*
%ADD10C,0.100000*%
G04 APERTURE END LIST*
D10*
X144338972Y-69372419D02*
X144005639Y-70372419D01*
X144005639Y-70372419D02*
X143672306Y-69372419D01*
X143196115Y-70372419D02*
X143291353Y-70324800D01*
X143291353Y-70324800D02*
X143338972Y-70277180D01*
X143338972Y-70277180D02*
X143386591Y-70181942D01*
X143386591Y-70181942D02*
X143386591Y-69896228D01*
X143386591Y-69896228D02*
X143338972Y-69800990D01*
X143338972Y-69800990D02*
X143291353Y-69753371D01*
X143291353Y-69753371D02*
X143196115Y-69705752D01*
X143196115Y-69705752D02*
X143053258Y-69705752D01*
X143053258Y-69705752D02*
X142958020Y-69753371D01*
X142958020Y-69753371D02*
X142910401Y-69800990D01*
X142910401Y-69800990D02*
X142862782Y-69896228D01*
X142862782Y-69896228D02*
X142862782Y-70181942D01*
X142862782Y-70181942D02*
X142910401Y-70277180D01*
X142910401Y-70277180D02*
X142958020Y-70324800D01*
X142958020Y-70324800D02*
X143053258Y-70372419D01*
X143053258Y-70372419D02*
X143196115Y-70372419D01*
X142291353Y-70372419D02*
X142386591Y-70324800D01*
X142386591Y-70324800D02*
X142434210Y-70229561D01*
X142434210Y-70229561D02*
X142434210Y-69372419D01*
X142053257Y-69705752D02*
X141672305Y-69705752D01*
X141910400Y-69372419D02*
X141910400Y-70229561D01*
X141910400Y-70229561D02*
X141862781Y-70324800D01*
X141862781Y-70324800D02*
X141767543Y-70372419D01*
X141767543Y-70372419D02*
X141672305Y-70372419D01*
X140910400Y-70372419D02*
X140910400Y-69848609D01*
X140910400Y-69848609D02*
X140958019Y-69753371D01*
X140958019Y-69753371D02*
X141053257Y-69705752D01*
X141053257Y-69705752D02*
X141243733Y-69705752D01*
X141243733Y-69705752D02*
X141338971Y-69753371D01*
X140910400Y-70324800D02*
X141005638Y-70372419D01*
X141005638Y-70372419D02*
X141243733Y-70372419D01*
X141243733Y-70372419D02*
X141338971Y-70324800D01*
X141338971Y-70324800D02*
X141386590Y-70229561D01*
X141386590Y-70229561D02*
X141386590Y-70134323D01*
X141386590Y-70134323D02*
X141338971Y-70039085D01*
X141338971Y-70039085D02*
X141243733Y-69991466D01*
X141243733Y-69991466D02*
X141005638Y-69991466D01*
X141005638Y-69991466D02*
X140910400Y-69943847D01*
X140005638Y-69705752D02*
X140005638Y-70515276D01*
X140005638Y-70515276D02*
X140053257Y-70610514D01*
X140053257Y-70610514D02*
X140100876Y-70658133D01*
X140100876Y-70658133D02*
X140196114Y-70705752D01*
X140196114Y-70705752D02*
X140338971Y-70705752D01*
X140338971Y-70705752D02*
X140434209Y-70658133D01*
X140005638Y-70324800D02*
X140100876Y-70372419D01*
X140100876Y-70372419D02*
X140291352Y-70372419D01*
X140291352Y-70372419D02*
X140386590Y-70324800D01*
X140386590Y-70324800D02*
X140434209Y-70277180D01*
X140434209Y-70277180D02*
X140481828Y-70181942D01*
X140481828Y-70181942D02*
X140481828Y-69896228D01*
X140481828Y-69896228D02*
X140434209Y-69800990D01*
X140434209Y-69800990D02*
X140386590Y-69753371D01*
X140386590Y-69753371D02*
X140291352Y-69705752D01*
X140291352Y-69705752D02*
X140100876Y-69705752D01*
X140100876Y-69705752D02*
X140005638Y-69753371D01*
X139148495Y-70324800D02*
X139243733Y-70372419D01*
X139243733Y-70372419D02*
X139434209Y-70372419D01*
X139434209Y-70372419D02*
X139529447Y-70324800D01*
X139529447Y-70324800D02*
X139577066Y-70229561D01*
X139577066Y-70229561D02*
X139577066Y-69848609D01*
X139577066Y-69848609D02*
X139529447Y-69753371D01*
X139529447Y-69753371D02*
X139434209Y-69705752D01*
X139434209Y-69705752D02*
X139243733Y-69705752D01*
X139243733Y-69705752D02*
X139148495Y-69753371D01*
X139148495Y-69753371D02*
X139100876Y-69848609D01*
X139100876Y-69848609D02*
X139100876Y-69943847D01*
X139100876Y-69943847D02*
X139577066Y-70039085D01*
X137338971Y-70372419D02*
X137672304Y-69896228D01*
X137910399Y-70372419D02*
X137910399Y-69372419D01*
X137910399Y-69372419D02*
X137529447Y-69372419D01*
X137529447Y-69372419D02*
X137434209Y-69420038D01*
X137434209Y-69420038D02*
X137386590Y-69467657D01*
X137386590Y-69467657D02*
X137338971Y-69562895D01*
X137338971Y-69562895D02*
X137338971Y-69705752D01*
X137338971Y-69705752D02*
X137386590Y-69800990D01*
X137386590Y-69800990D02*
X137434209Y-69848609D01*
X137434209Y-69848609D02*
X137529447Y-69896228D01*
X137529447Y-69896228D02*
X137910399Y-69896228D01*
X136529447Y-70324800D02*
X136624685Y-70372419D01*
X136624685Y-70372419D02*
X136815161Y-70372419D01*
X136815161Y-70372419D02*
X136910399Y-70324800D01*
X136910399Y-70324800D02*
X136958018Y-70229561D01*
X136958018Y-70229561D02*
X136958018Y-69848609D01*
X136958018Y-69848609D02*
X136910399Y-69753371D01*
X136910399Y-69753371D02*
X136815161Y-69705752D01*
X136815161Y-69705752D02*
X136624685Y-69705752D01*
X136624685Y-69705752D02*
X136529447Y-69753371D01*
X136529447Y-69753371D02*
X136481828Y-69848609D01*
X136481828Y-69848609D02*
X136481828Y-69943847D01*
X136481828Y-69943847D02*
X136958018Y-70039085D01*
X135624685Y-69705752D02*
X135624685Y-70515276D01*
X135624685Y-70515276D02*
X135672304Y-70610514D01*
X135672304Y-70610514D02*
X135719923Y-70658133D01*
X135719923Y-70658133D02*
X135815161Y-70705752D01*
X135815161Y-70705752D02*
X135958018Y-70705752D01*
X135958018Y-70705752D02*
X136053256Y-70658133D01*
X135624685Y-70324800D02*
X135719923Y-70372419D01*
X135719923Y-70372419D02*
X135910399Y-70372419D01*
X135910399Y-70372419D02*
X136005637Y-70324800D01*
X136005637Y-70324800D02*
X136053256Y-70277180D01*
X136053256Y-70277180D02*
X136100875Y-70181942D01*
X136100875Y-70181942D02*
X136100875Y-69896228D01*
X136100875Y-69896228D02*
X136053256Y-69800990D01*
X136053256Y-69800990D02*
X136005637Y-69753371D01*
X136005637Y-69753371D02*
X135910399Y-69705752D01*
X135910399Y-69705752D02*
X135719923Y-69705752D01*
X135719923Y-69705752D02*
X135624685Y-69753371D01*
X134719923Y-69705752D02*
X134719923Y-70372419D01*
X135148494Y-69705752D02*
X135148494Y-70229561D01*
X135148494Y-70229561D02*
X135100875Y-70324800D01*
X135100875Y-70324800D02*
X135005637Y-70372419D01*
X135005637Y-70372419D02*
X134862780Y-70372419D01*
X134862780Y-70372419D02*
X134767542Y-70324800D01*
X134767542Y-70324800D02*
X134719923Y-70277180D01*
X134100875Y-70372419D02*
X134196113Y-70324800D01*
X134196113Y-70324800D02*
X134243732Y-70229561D01*
X134243732Y-70229561D02*
X134243732Y-69372419D01*
X133291351Y-70372419D02*
X133291351Y-69848609D01*
X133291351Y-69848609D02*
X133338970Y-69753371D01*
X133338970Y-69753371D02*
X133434208Y-69705752D01*
X133434208Y-69705752D02*
X133624684Y-69705752D01*
X133624684Y-69705752D02*
X133719922Y-69753371D01*
X133291351Y-70324800D02*
X133386589Y-70372419D01*
X133386589Y-70372419D02*
X133624684Y-70372419D01*
X133624684Y-70372419D02*
X133719922Y-70324800D01*
X133719922Y-70324800D02*
X133767541Y-70229561D01*
X133767541Y-70229561D02*
X133767541Y-70134323D01*
X133767541Y-70134323D02*
X133719922Y-70039085D01*
X133719922Y-70039085D02*
X133624684Y-69991466D01*
X133624684Y-69991466D02*
X133386589Y-69991466D01*
X133386589Y-69991466D02*
X133291351Y-69943847D01*
X132958017Y-69705752D02*
X132577065Y-69705752D01*
X132815160Y-69372419D02*
X132815160Y-70229561D01*
X132815160Y-70229561D02*
X132767541Y-70324800D01*
X132767541Y-70324800D02*
X132672303Y-70372419D01*
X132672303Y-70372419D02*
X132577065Y-70372419D01*
X132100874Y-70372419D02*
X132196112Y-70324800D01*
X132196112Y-70324800D02*
X132243731Y-70277180D01*
X132243731Y-70277180D02*
X132291350Y-70181942D01*
X132291350Y-70181942D02*
X132291350Y-69896228D01*
X132291350Y-69896228D02*
X132243731Y-69800990D01*
X132243731Y-69800990D02*
X132196112Y-69753371D01*
X132196112Y-69753371D02*
X132100874Y-69705752D01*
X132100874Y-69705752D02*
X131958017Y-69705752D01*
X131958017Y-69705752D02*
X131862779Y-69753371D01*
X131862779Y-69753371D02*
X131815160Y-69800990D01*
X131815160Y-69800990D02*
X131767541Y-69896228D01*
X131767541Y-69896228D02*
X131767541Y-70181942D01*
X131767541Y-70181942D02*
X131815160Y-70277180D01*
X131815160Y-70277180D02*
X131862779Y-70324800D01*
X131862779Y-70324800D02*
X131958017Y-70372419D01*
X131958017Y-70372419D02*
X132100874Y-70372419D01*
X131338969Y-70372419D02*
X131338969Y-69705752D01*
X131338969Y-69896228D02*
X131291350Y-69800990D01*
X131291350Y-69800990D02*
X131243731Y-69753371D01*
X131243731Y-69753371D02*
X131148493Y-69705752D01*
X131148493Y-69705752D02*
X131053255Y-69705752D01*
M02*
