M48
; DRILL file {KiCad 8.0.6} date 2024-11-04T14:25:26-0500
; FORMAT={-:-/ absolute / inch / decimal}
; #@! TF.CreationDate,2024-11-04T14:25:26-05:00
; #@! TF.GenerationSoftware,Kicad,Pcbnew,8.0.6
; #@! TF.FileFunction,Plated,1,2,PTH
FMAT,2
INCH
; #@! TA.AperFunction,Plated,PTH,ComponentDrill
T1C0.0276
; #@! TA.AperFunction,Plated,PTH,ComponentDrill
T2C0.0315
; #@! TA.AperFunction,Plated,PTH,ComponentDrill
T3C0.0354
; #@! TA.AperFunction,Plated,PTH,ComponentDrill
T4C0.0433
; #@! TA.AperFunction,Plated,PTH,ComponentDrill
T5C0.0512
%
G90
G05
T1
X6.378Y-3.1102
X6.378Y-3.3102
T2
X4.7835Y-3.0587
X4.7835Y-3.3587
X5.0591Y-3.1496
X5.0591Y-3.3465
X5.2559Y-3.1988
X5.2559Y-3.2972
X5.9055Y-3.1299
X5.9055Y-3.3268
X6.1614Y-3.1594
X6.1614Y-3.2579
T3
X4.6152Y-2.8937
X4.7152Y-2.8937
X6.2494Y-2.8937
X6.3494Y-2.8937
T4
X4.9803Y-2.9309
X5.0803Y-2.9309
X5.1803Y-2.9309
X5.7858Y-2.9309
X5.8858Y-2.9309
X5.9858Y-2.9309
T5
X4.6654Y-2.2835
X4.8654Y-2.2835
X5.3923Y-2.2911
X5.5923Y-2.2911
X6.0827Y-2.2835
X6.2827Y-2.2835
M30
