%TF.GenerationSoftware,KiCad,Pcbnew,8.0.6*%
%TF.CreationDate,2024-11-04T14:24:17-05:00*%
%TF.ProjectId,Voltage regulator 5 and 9V,566f6c74-6167-4652-9072-6567756c6174,rev?*%
%TF.SameCoordinates,Original*%
%TF.FileFunction,Legend,Top*%
%TF.FilePolarity,Positive*%
%FSLAX46Y46*%
G04 Gerber Fmt 4.6, Leading zero omitted, Abs format (unit mm)*
G04 Created by KiCad (PCBNEW 8.0.6) date 2024-11-04 14:24:17*
%MOMM*%
%LPD*%
G01*
G04 APERTURE LIST*
%ADD10C,0.150000*%
%ADD11C,0.120000*%
G04 APERTURE END LIST*
D10*
X148738095Y-69629819D02*
X148738095Y-70439342D01*
X148738095Y-70439342D02*
X148785714Y-70534580D01*
X148785714Y-70534580D02*
X148833333Y-70582200D01*
X148833333Y-70582200D02*
X148928571Y-70629819D01*
X148928571Y-70629819D02*
X149119047Y-70629819D01*
X149119047Y-70629819D02*
X149214285Y-70582200D01*
X149214285Y-70582200D02*
X149261904Y-70534580D01*
X149261904Y-70534580D02*
X149309523Y-70439342D01*
X149309523Y-70439342D02*
X149309523Y-69629819D01*
X149738095Y-69725057D02*
X149785714Y-69677438D01*
X149785714Y-69677438D02*
X149880952Y-69629819D01*
X149880952Y-69629819D02*
X150119047Y-69629819D01*
X150119047Y-69629819D02*
X150214285Y-69677438D01*
X150214285Y-69677438D02*
X150261904Y-69725057D01*
X150261904Y-69725057D02*
X150309523Y-69820295D01*
X150309523Y-69820295D02*
X150309523Y-69915533D01*
X150309523Y-69915533D02*
X150261904Y-70058390D01*
X150261904Y-70058390D02*
X149690476Y-70629819D01*
X149690476Y-70629819D02*
X150309523Y-70629819D01*
X128278095Y-69629819D02*
X128278095Y-70439342D01*
X128278095Y-70439342D02*
X128325714Y-70534580D01*
X128325714Y-70534580D02*
X128373333Y-70582200D01*
X128373333Y-70582200D02*
X128468571Y-70629819D01*
X128468571Y-70629819D02*
X128659047Y-70629819D01*
X128659047Y-70629819D02*
X128754285Y-70582200D01*
X128754285Y-70582200D02*
X128801904Y-70534580D01*
X128801904Y-70534580D02*
X128849523Y-70439342D01*
X128849523Y-70439342D02*
X128849523Y-69629819D01*
X129849523Y-70629819D02*
X129278095Y-70629819D01*
X129563809Y-70629819D02*
X129563809Y-69629819D01*
X129563809Y-69629819D02*
X129468571Y-69772676D01*
X129468571Y-69772676D02*
X129373333Y-69867914D01*
X129373333Y-69867914D02*
X129278095Y-69915533D01*
X119584819Y-81666666D02*
X119108628Y-81999999D01*
X119584819Y-82238094D02*
X118584819Y-82238094D01*
X118584819Y-82238094D02*
X118584819Y-81857142D01*
X118584819Y-81857142D02*
X118632438Y-81761904D01*
X118632438Y-81761904D02*
X118680057Y-81714285D01*
X118680057Y-81714285D02*
X118775295Y-81666666D01*
X118775295Y-81666666D02*
X118918152Y-81666666D01*
X118918152Y-81666666D02*
X119013390Y-81714285D01*
X119013390Y-81714285D02*
X119061009Y-81761904D01*
X119061009Y-81761904D02*
X119108628Y-81857142D01*
X119108628Y-81857142D02*
X119108628Y-82238094D01*
X118680057Y-81285713D02*
X118632438Y-81238094D01*
X118632438Y-81238094D02*
X118584819Y-81142856D01*
X118584819Y-81142856D02*
X118584819Y-80904761D01*
X118584819Y-80904761D02*
X118632438Y-80809523D01*
X118632438Y-80809523D02*
X118680057Y-80761904D01*
X118680057Y-80761904D02*
X118775295Y-80714285D01*
X118775295Y-80714285D02*
X118870533Y-80714285D01*
X118870533Y-80714285D02*
X119013390Y-80761904D01*
X119013390Y-80761904D02*
X119584819Y-81333332D01*
X119584819Y-81333332D02*
X119584819Y-80714285D01*
X164374819Y-81706666D02*
X163898628Y-82039999D01*
X164374819Y-82278094D02*
X163374819Y-82278094D01*
X163374819Y-82278094D02*
X163374819Y-81897142D01*
X163374819Y-81897142D02*
X163422438Y-81801904D01*
X163422438Y-81801904D02*
X163470057Y-81754285D01*
X163470057Y-81754285D02*
X163565295Y-81706666D01*
X163565295Y-81706666D02*
X163708152Y-81706666D01*
X163708152Y-81706666D02*
X163803390Y-81754285D01*
X163803390Y-81754285D02*
X163851009Y-81801904D01*
X163851009Y-81801904D02*
X163898628Y-81897142D01*
X163898628Y-81897142D02*
X163898628Y-82278094D01*
X164374819Y-80754285D02*
X164374819Y-81325713D01*
X164374819Y-81039999D02*
X163374819Y-81039999D01*
X163374819Y-81039999D02*
X163517676Y-81135237D01*
X163517676Y-81135237D02*
X163612914Y-81230475D01*
X163612914Y-81230475D02*
X163660533Y-81325713D01*
X120706666Y-63714819D02*
X120706666Y-64429104D01*
X120706666Y-64429104D02*
X120659047Y-64571961D01*
X120659047Y-64571961D02*
X120563809Y-64667200D01*
X120563809Y-64667200D02*
X120420952Y-64714819D01*
X120420952Y-64714819D02*
X120325714Y-64714819D01*
X121087619Y-63714819D02*
X121706666Y-63714819D01*
X121706666Y-63714819D02*
X121373333Y-64095771D01*
X121373333Y-64095771D02*
X121516190Y-64095771D01*
X121516190Y-64095771D02*
X121611428Y-64143390D01*
X121611428Y-64143390D02*
X121659047Y-64191009D01*
X121659047Y-64191009D02*
X121706666Y-64286247D01*
X121706666Y-64286247D02*
X121706666Y-64524342D01*
X121706666Y-64524342D02*
X121659047Y-64619580D01*
X121659047Y-64619580D02*
X121611428Y-64667200D01*
X121611428Y-64667200D02*
X121516190Y-64714819D01*
X121516190Y-64714819D02*
X121230476Y-64714819D01*
X121230476Y-64714819D02*
X121135238Y-64667200D01*
X121135238Y-64667200D02*
X121087619Y-64619580D01*
X139171666Y-63909819D02*
X139171666Y-64624104D01*
X139171666Y-64624104D02*
X139124047Y-64766961D01*
X139124047Y-64766961D02*
X139028809Y-64862200D01*
X139028809Y-64862200D02*
X138885952Y-64909819D01*
X138885952Y-64909819D02*
X138790714Y-64909819D01*
X139600238Y-64005057D02*
X139647857Y-63957438D01*
X139647857Y-63957438D02*
X139743095Y-63909819D01*
X139743095Y-63909819D02*
X139981190Y-63909819D01*
X139981190Y-63909819D02*
X140076428Y-63957438D01*
X140076428Y-63957438D02*
X140124047Y-64005057D01*
X140124047Y-64005057D02*
X140171666Y-64100295D01*
X140171666Y-64100295D02*
X140171666Y-64195533D01*
X140171666Y-64195533D02*
X140124047Y-64338390D01*
X140124047Y-64338390D02*
X139552619Y-64909819D01*
X139552619Y-64909819D02*
X140171666Y-64909819D01*
X156706666Y-63714819D02*
X156706666Y-64429104D01*
X156706666Y-64429104D02*
X156659047Y-64571961D01*
X156659047Y-64571961D02*
X156563809Y-64667200D01*
X156563809Y-64667200D02*
X156420952Y-64714819D01*
X156420952Y-64714819D02*
X156325714Y-64714819D01*
X157706666Y-64714819D02*
X157135238Y-64714819D01*
X157420952Y-64714819D02*
X157420952Y-63714819D01*
X157420952Y-63714819D02*
X157325714Y-63857676D01*
X157325714Y-63857676D02*
X157230476Y-63952914D01*
X157230476Y-63952914D02*
X157135238Y-64000533D01*
X159266905Y-77414819D02*
X159266905Y-76414819D01*
X159266905Y-76414819D02*
X159505000Y-76414819D01*
X159505000Y-76414819D02*
X159647857Y-76462438D01*
X159647857Y-76462438D02*
X159743095Y-76557676D01*
X159743095Y-76557676D02*
X159790714Y-76652914D01*
X159790714Y-76652914D02*
X159838333Y-76843390D01*
X159838333Y-76843390D02*
X159838333Y-76986247D01*
X159838333Y-76986247D02*
X159790714Y-77176723D01*
X159790714Y-77176723D02*
X159743095Y-77271961D01*
X159743095Y-77271961D02*
X159647857Y-77367200D01*
X159647857Y-77367200D02*
X159505000Y-77414819D01*
X159505000Y-77414819D02*
X159266905Y-77414819D01*
X160219286Y-76510057D02*
X160266905Y-76462438D01*
X160266905Y-76462438D02*
X160362143Y-76414819D01*
X160362143Y-76414819D02*
X160600238Y-76414819D01*
X160600238Y-76414819D02*
X160695476Y-76462438D01*
X160695476Y-76462438D02*
X160743095Y-76510057D01*
X160743095Y-76510057D02*
X160790714Y-76605295D01*
X160790714Y-76605295D02*
X160790714Y-76700533D01*
X160790714Y-76700533D02*
X160743095Y-76843390D01*
X160743095Y-76843390D02*
X160171667Y-77414819D01*
X160171667Y-77414819D02*
X160790714Y-77414819D01*
X117756905Y-70494819D02*
X117756905Y-69494819D01*
X117756905Y-69494819D02*
X117995000Y-69494819D01*
X117995000Y-69494819D02*
X118137857Y-69542438D01*
X118137857Y-69542438D02*
X118233095Y-69637676D01*
X118233095Y-69637676D02*
X118280714Y-69732914D01*
X118280714Y-69732914D02*
X118328333Y-69923390D01*
X118328333Y-69923390D02*
X118328333Y-70066247D01*
X118328333Y-70066247D02*
X118280714Y-70256723D01*
X118280714Y-70256723D02*
X118233095Y-70351961D01*
X118233095Y-70351961D02*
X118137857Y-70447200D01*
X118137857Y-70447200D02*
X117995000Y-70494819D01*
X117995000Y-70494819D02*
X117756905Y-70494819D01*
X119280714Y-70494819D02*
X118709286Y-70494819D01*
X118995000Y-70494819D02*
X118995000Y-69494819D01*
X118995000Y-69494819D02*
X118899762Y-69637676D01*
X118899762Y-69637676D02*
X118804524Y-69732914D01*
X118804524Y-69732914D02*
X118709286Y-69780533D01*
X154809580Y-81666666D02*
X154857200Y-81714285D01*
X154857200Y-81714285D02*
X154904819Y-81857142D01*
X154904819Y-81857142D02*
X154904819Y-81952380D01*
X154904819Y-81952380D02*
X154857200Y-82095237D01*
X154857200Y-82095237D02*
X154761961Y-82190475D01*
X154761961Y-82190475D02*
X154666723Y-82238094D01*
X154666723Y-82238094D02*
X154476247Y-82285713D01*
X154476247Y-82285713D02*
X154333390Y-82285713D01*
X154333390Y-82285713D02*
X154142914Y-82238094D01*
X154142914Y-82238094D02*
X154047676Y-82190475D01*
X154047676Y-82190475D02*
X153952438Y-82095237D01*
X153952438Y-82095237D02*
X153904819Y-81952380D01*
X153904819Y-81952380D02*
X153904819Y-81857142D01*
X153904819Y-81857142D02*
X153952438Y-81714285D01*
X153952438Y-81714285D02*
X154000057Y-81666666D01*
X154238152Y-80809523D02*
X154904819Y-80809523D01*
X153857200Y-81047618D02*
X154571485Y-81285713D01*
X154571485Y-81285713D02*
X154571485Y-80666666D01*
X135909580Y-82666666D02*
X135957200Y-82714285D01*
X135957200Y-82714285D02*
X136004819Y-82857142D01*
X136004819Y-82857142D02*
X136004819Y-82952380D01*
X136004819Y-82952380D02*
X135957200Y-83095237D01*
X135957200Y-83095237D02*
X135861961Y-83190475D01*
X135861961Y-83190475D02*
X135766723Y-83238094D01*
X135766723Y-83238094D02*
X135576247Y-83285713D01*
X135576247Y-83285713D02*
X135433390Y-83285713D01*
X135433390Y-83285713D02*
X135242914Y-83238094D01*
X135242914Y-83238094D02*
X135147676Y-83190475D01*
X135147676Y-83190475D02*
X135052438Y-83095237D01*
X135052438Y-83095237D02*
X135004819Y-82952380D01*
X135004819Y-82952380D02*
X135004819Y-82857142D01*
X135004819Y-82857142D02*
X135052438Y-82714285D01*
X135052438Y-82714285D02*
X135100057Y-82666666D01*
X135004819Y-82333332D02*
X135004819Y-81714285D01*
X135004819Y-81714285D02*
X135385771Y-82047618D01*
X135385771Y-82047618D02*
X135385771Y-81904761D01*
X135385771Y-81904761D02*
X135433390Y-81809523D01*
X135433390Y-81809523D02*
X135481009Y-81761904D01*
X135481009Y-81761904D02*
X135576247Y-81714285D01*
X135576247Y-81714285D02*
X135814342Y-81714285D01*
X135814342Y-81714285D02*
X135909580Y-81761904D01*
X135909580Y-81761904D02*
X135957200Y-81809523D01*
X135957200Y-81809523D02*
X136004819Y-81904761D01*
X136004819Y-81904761D02*
X136004819Y-82190475D01*
X136004819Y-82190475D02*
X135957200Y-82285713D01*
X135957200Y-82285713D02*
X135909580Y-82333332D01*
X147859580Y-82166666D02*
X147907200Y-82214285D01*
X147907200Y-82214285D02*
X147954819Y-82357142D01*
X147954819Y-82357142D02*
X147954819Y-82452380D01*
X147954819Y-82452380D02*
X147907200Y-82595237D01*
X147907200Y-82595237D02*
X147811961Y-82690475D01*
X147811961Y-82690475D02*
X147716723Y-82738094D01*
X147716723Y-82738094D02*
X147526247Y-82785713D01*
X147526247Y-82785713D02*
X147383390Y-82785713D01*
X147383390Y-82785713D02*
X147192914Y-82738094D01*
X147192914Y-82738094D02*
X147097676Y-82690475D01*
X147097676Y-82690475D02*
X147002438Y-82595237D01*
X147002438Y-82595237D02*
X146954819Y-82452380D01*
X146954819Y-82452380D02*
X146954819Y-82357142D01*
X146954819Y-82357142D02*
X147002438Y-82214285D01*
X147002438Y-82214285D02*
X147050057Y-82166666D01*
X147954819Y-81214285D02*
X147954819Y-81785713D01*
X147954819Y-81499999D02*
X146954819Y-81499999D01*
X146954819Y-81499999D02*
X147097676Y-81595237D01*
X147097676Y-81595237D02*
X147192914Y-81690475D01*
X147192914Y-81690475D02*
X147240533Y-81785713D01*
D11*
%TO.C,U2*%
X144380000Y-71175000D02*
X144380000Y-75816000D01*
X144380000Y-71175000D02*
X154620000Y-71175000D01*
X144380000Y-72685000D02*
X154620000Y-72685000D01*
X144380000Y-75816000D02*
X154620000Y-75816000D01*
X147650000Y-71175000D02*
X147650000Y-72685000D01*
X151351000Y-71175000D02*
X151351000Y-72685000D01*
X154620000Y-71175000D02*
X154620000Y-75816000D01*
%TO.C,U1*%
X123920000Y-71175000D02*
X123920000Y-75816000D01*
X123920000Y-71175000D02*
X134160000Y-71175000D01*
X123920000Y-72685000D02*
X134160000Y-72685000D01*
X123920000Y-75816000D02*
X134160000Y-75816000D01*
X127190000Y-71175000D02*
X127190000Y-72685000D01*
X130891000Y-71175000D02*
X130891000Y-72685000D01*
X134160000Y-71175000D02*
X134160000Y-75816000D01*
%TO.C,R2*%
X122870000Y-78230000D02*
X122540000Y-78230000D01*
X120130000Y-78230000D02*
X120460000Y-78230000D01*
X122870000Y-84770000D02*
X122870000Y-78230000D01*
X122540000Y-84770000D02*
X122870000Y-84770000D01*
X120460000Y-84770000D02*
X120130000Y-84770000D01*
X120130000Y-84770000D02*
X120130000Y-78230000D01*
%TO.C,R1*%
X162920000Y-79620000D02*
X162920000Y-83460000D01*
X161080000Y-79620000D02*
X161080000Y-83460000D01*
%TO.C,J3*%
X126420000Y-53840000D02*
X126420000Y-53100000D01*
X126420000Y-53100000D02*
X125920000Y-53100000D01*
X126180000Y-63261000D02*
X126180000Y-53340000D01*
X126180000Y-63261000D02*
X115900000Y-63261000D01*
X126180000Y-60301000D02*
X115900000Y-60301000D01*
X126180000Y-55400000D02*
X115900000Y-55400000D01*
X126180000Y-53900000D02*
X115900000Y-53900000D01*
X126180000Y-53340000D02*
X115900000Y-53340000D01*
X119727000Y-56977000D02*
X119774000Y-56931000D01*
X119534000Y-56761000D02*
X119569000Y-56726000D01*
X117430000Y-59275000D02*
X117465000Y-59239000D01*
X117225000Y-59069000D02*
X117272000Y-59023000D01*
X115900000Y-63261000D02*
X115900000Y-53340000D01*
X125115427Y-57316958D02*
G75*
G02*
X125115000Y-58684000I-1535420J-683041D01*
G01*
X124263042Y-59535427D02*
G75*
G02*
X122896000Y-59535000I-683041J1535420D01*
G01*
X123551195Y-56319747D02*
G75*
G02*
X124264000Y-56465000I28806J-1680254D01*
G01*
X122896682Y-56465244D02*
G75*
G02*
X123580000Y-56320000I683318J-1534756D01*
G01*
X122044573Y-58683042D02*
G75*
G02*
X122045000Y-57316000I1535427J683042D01*
G01*
X120180000Y-58000000D02*
G75*
G02*
X116820000Y-58000000I-1680000J0D01*
G01*
X116820000Y-58000000D02*
G75*
G02*
X120180000Y-58000000I1680000J0D01*
G01*
%TO.C,J2*%
X144885000Y-54035000D02*
X144885000Y-53295000D01*
X144885000Y-53295000D02*
X144385000Y-53295000D01*
X144645000Y-63456000D02*
X144645000Y-53535000D01*
X144645000Y-63456000D02*
X134365000Y-63456000D01*
X144645000Y-60496000D02*
X134365000Y-60496000D01*
X144645000Y-55595000D02*
X134365000Y-55595000D01*
X144645000Y-54095000D02*
X134365000Y-54095000D01*
X144645000Y-53535000D02*
X134365000Y-53535000D01*
X138192000Y-57172000D02*
X138239000Y-57126000D01*
X137999000Y-56956000D02*
X138034000Y-56921000D01*
X135895000Y-59470000D02*
X135930000Y-59434000D01*
X135690000Y-59264000D02*
X135737000Y-59218000D01*
X134365000Y-63456000D02*
X134365000Y-53535000D01*
X143580427Y-57511958D02*
G75*
G02*
X143580000Y-58879000I-1535420J-683041D01*
G01*
X142728042Y-59730427D02*
G75*
G02*
X141361000Y-59730000I-683041J1535420D01*
G01*
X142016195Y-56514747D02*
G75*
G02*
X142729000Y-56660000I28806J-1680254D01*
G01*
X141361682Y-56660244D02*
G75*
G02*
X142045000Y-56515000I683318J-1534756D01*
G01*
X140509573Y-58878042D02*
G75*
G02*
X140510000Y-57511000I1535427J683042D01*
G01*
X138645000Y-58195000D02*
G75*
G02*
X135285000Y-58195000I-1680000J0D01*
G01*
X135285000Y-58195000D02*
G75*
G02*
X138645000Y-58195000I1680000J0D01*
G01*
%TO.C,J1*%
X162420000Y-53840000D02*
X162420000Y-53100000D01*
X162420000Y-53100000D02*
X161920000Y-53100000D01*
X162180000Y-63261000D02*
X162180000Y-53340000D01*
X162180000Y-63261000D02*
X151900000Y-63261000D01*
X162180000Y-60301000D02*
X151900000Y-60301000D01*
X162180000Y-55400000D02*
X151900000Y-55400000D01*
X162180000Y-53900000D02*
X151900000Y-53900000D01*
X162180000Y-53340000D02*
X151900000Y-53340000D01*
X155727000Y-56977000D02*
X155774000Y-56931000D01*
X155534000Y-56761000D02*
X155569000Y-56726000D01*
X153430000Y-59275000D02*
X153465000Y-59239000D01*
X153225000Y-59069000D02*
X153272000Y-59023000D01*
X151900000Y-63261000D02*
X151900000Y-53340000D01*
X161115427Y-57316958D02*
G75*
G02*
X161115000Y-58684000I-1535420J-683041D01*
G01*
X160263042Y-59535427D02*
G75*
G02*
X158896000Y-59535000I-683041J1535420D01*
G01*
X159551195Y-56319747D02*
G75*
G02*
X160264000Y-56465000I28806J-1680254D01*
G01*
X158896682Y-56465244D02*
G75*
G02*
X159580000Y-56320000I683318J-1534756D01*
G01*
X158044573Y-58683042D02*
G75*
G02*
X158045000Y-57316000I1535427J683042D01*
G01*
X156180000Y-58000000D02*
G75*
G02*
X152820000Y-58000000I-1680000J0D01*
G01*
X152820000Y-58000000D02*
G75*
G02*
X156180000Y-58000000I1680000J0D01*
G01*
%TO.C,D2*%
X162065000Y-74899000D02*
X162065000Y-74580000D01*
X162065000Y-72420000D02*
X162065000Y-72101000D01*
X162065000Y-74898749D02*
G75*
G02*
X157761758Y-74580724I-2060000J1398749D01*
G01*
X161688330Y-74580000D02*
G75*
G02*
X158322287Y-74580961I-1683330J1080000D01*
G01*
X158322287Y-72419039D02*
G75*
G02*
X161688330Y-72420000I1682713J-1080961D01*
G01*
X157761758Y-72419276D02*
G75*
G02*
X162065000Y-72101251I2243242J-1080724D01*
G01*
%TO.C,D1*%
X116435000Y-72101000D02*
X116435000Y-72420000D01*
X116435000Y-74580000D02*
X116435000Y-74899000D01*
X116435000Y-72101251D02*
G75*
G02*
X120738242Y-72419276I2060000J-1398749D01*
G01*
X116811670Y-72420000D02*
G75*
G02*
X120177713Y-72419039I1683330J-1080000D01*
G01*
X120177713Y-74580961D02*
G75*
G02*
X116811670Y-74580000I-1682713J1080961D01*
G01*
X120738242Y-74580724D02*
G75*
G02*
X116435000Y-74898749I-2243242J1080724D01*
G01*
%TO.C,C4*%
X157420000Y-82129000D02*
X157420000Y-80871000D01*
X155580000Y-82129000D02*
X155580000Y-80871000D01*
%TO.C,C3*%
X132580000Y-81871000D02*
X132580000Y-83129000D01*
X134420000Y-81871000D02*
X134420000Y-83129000D01*
%TO.C,C2*%
X129870000Y-80030000D02*
X129555000Y-80030000D01*
X129870000Y-80030000D02*
X129870000Y-84970000D01*
X127445000Y-80030000D02*
X127130000Y-80030000D01*
X127130000Y-80030000D02*
X127130000Y-84970000D01*
X129870000Y-84970000D02*
X129555000Y-84970000D01*
X127445000Y-84970000D02*
X127130000Y-84970000D01*
%TO.C,C1*%
X148630000Y-84470000D02*
X148945000Y-84470000D01*
X148630000Y-84470000D02*
X148630000Y-79530000D01*
X151055000Y-84470000D02*
X151370000Y-84470000D01*
X151370000Y-84470000D02*
X151370000Y-79530000D01*
X148630000Y-79530000D02*
X148945000Y-79530000D01*
X151055000Y-79530000D02*
X151370000Y-79530000D01*
%TD*%
M02*
